<svg width="456.018" height="98.905" viewBox="0 0 120.655 26.169" xml:space="preserve" xmlns:xlink="http://www.w3.org/1999/xlink" xmlns="http://www.w3.org/2000/svg"><defs><linearGradient id="b"><stop style="stop-color:#036065;stop-opacity:1" offset="0"/><stop style="stop-color:#115378;stop-opacity:1" offset="1"/></linearGradient><linearGradient id="a"><stop style="stop-color:#036065;stop-opacity:1" offset="0"/><stop style="stop-color:#115378;stop-opacity:1" offset="1"/></linearGradient><linearGradient xlink:href="#a" id="c" gradientUnits="userSpaceOnUse" gradientTransform="translate(-69.728 -78.4)" x1="110.802" y1="106.667" x2="141.683" y2="106.667"/><linearGradient xlink:href="#b" id="d" x1="140.674" y1="190.877" x2="157.927" y2="164.308" gradientUnits="userSpaceOnUse" gradientTransform="translate(-3.411 -149.263)"/></defs><path style="font-weight:700;font-size:35.2777px;font-family:Raleway;-inkscape-font-specification:&quot;Raleway Bold&quot;;fill:#fff;fill-opacity:1;stroke-width:.264583" d="M56.628 15.545q-2.68 0-4.939 1.059a12.1 12.1 0 0 0-3.88 2.822 13.7 13.7 0 0 0-2.576 4.057 12.5 12.5 0 0 0-.917 4.762q0 2.4.882 4.692a14 14 0 0 0 2.47 4.092q.075.085.154.168a2.56 12.383 50.862 0 0 4.6-1.522 2.56 12.383 50.862 0 0 .275-.16 7.3 7.3 0 0 1-1.537-1.414 9 9 0 0 1-1.411-2.716 10 10 0 0 1-.494-3.14q0-1.552.459-3.034.494-1.48 1.41-2.681a6.8 6.8 0 0 1 2.258-1.905q1.376-.74 3.175-.74 1.694 0 3.034.705a6.34 6.34 0 0 1 2.294 1.87 8.2 8.2 0 0 1 1.446 2.68q.27.755.402 1.545a2.56 12.383 50.862 0 0 .359-.386 2.56 12.383 50.862 0 0 2.84-4.61 14 14 0 0 0-1.52-2.122 11.9 11.9 0 0 0-3.845-2.928q-2.223-1.094-4.939-1.094m2.106 7.253a1.72 1.72 0 0 0-1.72 1.72 1.72 1.72 0 0 0 1.72 1.719 1.72 1.72 0 0 0 1.72-1.72 1.72 1.72 0 0 0-1.72-1.72m9.654 2.446a4.856 19.511 50.862 0 1-3.839 3.982 4.856 19.511 50.862 0 1-.86.802q-.12.625-.323 1.251a9 9 0 0 1-1.376 2.716 7.1 7.1 0 0 1-2.293 1.94q-1.376.706-3.14.706-.554 0-1.07-.069a4.856 19.511 50.862 0 1-.838.568 4.856 19.511 50.862 0 1-3.872 2.367q.36.2.736.38 2.258 1.059 5.01 1.058 2.645 0 4.868-1.023a11.9 11.9 0 0 0 3.88-2.787 13.4 13.4 0 0 0 2.576-4.057q.917-2.293.917-4.762 0-1.566-.376-3.072" transform="translate(-41.074 -14.976)"/><path style="fill:url(#c);stroke-width:.314456" d="M70.353 15.397a4.856 19.511 50.862 0 0-6.955 2.33 11.7 11.7 0 0 1 2.014 1.84q.37.427.701.877a2.56 12.383 50.862 0 1 .006.007 2.56 12.383 50.862 0 1 .037.05 2.56 12.383 50.862 0 1-2.753 4.849 2.56 12.383 50.862 0 1-5.272 4.902 2.56 12.383 50.862 0 1-6.399 4.473 2.56 12.383 50.862 0 1-4.792 1.39 2.56 12.383 50.862 0 1-.03-.033 2.56 12.383 50.862 0 1-.058-.088 14 14 0 0 1-1.794-3.44 4.856 19.511 50.862 0 0-3.677 8.028 4.856 19.511 50.862 0 0 8.27-1.786 4.856 19.511 50.862 0 0 4.309-2.605 4.856 19.511 50.862 0 0 5.62-4.159 4.856 19.511 50.862 0 0 4.28-3.755 4.856 19.511 50.862 0 0 4.133-4.324 4.856 19.511 50.862 0 0 3.655-8.001 4.856 19.511 50.862 0 0-1.294-.555z" transform="translate(-41.074 -14.976)"/><path d="M82.824 26.335q-2.152 0-3.846.847-1.693.811-2.434 2.363V40.73h-4.727V22.243h4.339v3.951q.988-1.905 2.505-2.998t3.21-1.2h.6q.211 0 .353.035zm13.158 14.746q-2.117 0-3.775-.952-1.658-.953-2.61-2.61v3.21h-4.128V14.976h4.728v10.513q.987-1.658 2.575-2.611 1.623-.952 3.775-.952 1.799 0 3.28.776 1.482.74 2.54 2.081 1.094 1.34 1.658 3.07.6 1.728.6 3.703 0 1.976-.67 3.704-.635 1.73-1.8 3.07-1.163 1.305-2.751 2.046-1.552.705-3.422.705m-1.305-4.021q1.129 0 2.046-.424.952-.458 1.623-1.2.705-.74 1.058-1.728.388-1.023.388-2.116 0-1.517-.635-2.787-.6-1.306-1.693-2.082-1.059-.776-2.505-.776-1.023 0-1.976.494-.917.459-1.658 1.27-.705.811-1.128 1.834v4.41q.211.706.67 1.27.494.565 1.129.988.635.388 1.305.635.706.212 1.376.212m13.158 3.669V22.243h4.728v18.486zm0-21.061v-4.692h4.728v4.692zm20.073 20.108q-.6.247-1.446.564-.847.318-1.834.494-.953.212-1.94.212-1.306 0-2.4-.459-1.093-.458-1.763-1.446-.635-1.023-.635-2.646V25.877h-2.435v-3.634h2.435v-5.997h4.727v5.997h3.88v3.634h-3.88v9.03q.035.953.529 1.377.494.423 1.235.423.74 0 1.446-.247t1.129-.423z" style="font-weight:700;font-size:35.2777px;font-family:Raleway;-inkscape-font-specification:&quot;Raleway Bold&quot;;fill:#fff;fill-opacity:1;stroke-width:.529167" aria-label="rbit" transform="translate(-41.074 -14.976)"/><path d="M141.021 40.94q-2.999 0-5.115-.987-2.082-1.023-3.387-2.787-1.27-1.764-1.87-3.986-.6-2.258-.6-4.692v-12.77h4.869v12.77q0 1.552.282 3.034.318 1.446 1.023 2.61.706 1.164 1.87 1.835 1.164.67 2.893.67 1.764 0 2.928-.67 1.2-.706 1.87-1.87.705-1.164 1.023-2.61.317-1.482.317-3v-12.77h4.833v12.77q0 2.576-.635 4.834-.6 2.258-1.94 3.986-1.305 1.694-3.387 2.681-2.081.953-4.974.953m15.84-.176V15.717h4.868v25.047z" style="font-weight:700;font-size:35.2777px;font-family:Raleway;-inkscape-font-specification:&quot;Raleway Bold&quot;;fill:url(#d);stroke-width:.529167" aria-label="UI" transform="translate(-41.074 -14.976)"/></svg>